<svg xmlns="http://www.w3.org/2000/svg" width="159.938" height="66.819" viewBox="-72 -72 119.953 50.114"><g class="tikz-arrow" stroke="currentColor" stroke-miterlimit="10" stroke-width=".6"><g class="tikz-fill" fill="var(--tikz-fill, #f3f3f3)"><path d="M-25.087-33.756c0-5.523-4.477-10-10-10s-10 4.477-10 10 4.477 10 10 10 10-4.477 10-10Zm-10 0"/><g class="tikz-arrow" fill="currentColor" stroke="none"><text class="tikz-arrow" fill="currentColor" x="-35.087" y="-33.756" font-family="cmmi9" font-size="9" transform="translate(-4.15 1.062)">q</text><text class="tikz-arrow" fill="currentColor" x="-30.954" y="-32.756" font-family="cmr6" font-size="6" transform="translate(-4.15 1.062)">1</text></g></g><path fill="none" d="M-65.304-33.756h18.697"/><path stroke-linejoin="round" d="M-45.687-33.756c-1.15-.23-2.3-.69-3.68-1.495 1.38 1.035 1.38 1.955 0 2.99 1.38-.805 2.53-1.265 3.68-1.495Z"/><g class="tikz-fill" fill="var(--tikz-fill, #f3f3f3)"><g stroke-width="3.2"><path d="M46.045-33.756c0-5.523-4.477-10-10-10s-10 4.477-10 10 4.477 10 10 10 10-4.477 10-10Zm-10 0"/><path fill="none" class="tikz-fill" stroke="var(--tikz-fill, #f3f3f3)" stroke-width="2" d="M46.045-33.756c0-5.523-4.477-10-10-10s-10 4.477-10 10 4.477 10 10 10 10-4.477 10-10Zm-10 0"/></g><g class="tikz-arrow" fill="currentColor" stroke="none"><text class="tikz-arrow" fill="currentColor" x="-35.087" y="-33.756" font-family="cmmi9" font-size="9" transform="translate(66.982 1.062)">q</text><text class="tikz-arrow" fill="currentColor" x="-30.954" y="-32.756" font-family="cmr6" font-size="6" transform="translate(66.982 1.062)">2</text></g></g><path fill="none" d="M-37.753-43.705c-4.304-16.065 9.636-16.065 5.906-2.144"/><path stroke-linejoin="round" d="M-32.085-44.96c.52-1.052 1.261-2.044 2.396-3.168-1.357 1.065-2.245.827-2.888-.774.42 1.541.567 2.771.492 3.941Z"/><text class="tikz-arrow" fill="currentColor" x="-35.087" y="-33.756" stroke="none" font-family="cmtt10" font-size="10" transform="translate(-2.625 -25.63)">b</text><path fill="none" d="M-24.787-33.756h48.612"/><path stroke-linejoin="round" d="M24.745-33.756c-1.15-.23-2.3-.69-3.68-1.495 1.38 1.035 1.38 1.955 0 2.99 1.38-.805 2.53-1.265 3.68-1.495Z"/><text class="tikz-arrow" fill="currentColor" x="-35.087" y="-33.756" stroke="none" font-family="cmtt10" font-size="10" transform="translate(32.591 -3.633)">a</text><path fill="none" d="M33.198-44.381c-4.597-17.157 10.29-17.157 6.268-2.145"/><path stroke-linejoin="round" d="M39.228-45.637c.52-1.051 1.261-2.043 2.396-3.168-1.357 1.066-2.245.827-2.888-.773.42 1.54.567 2.77.492 3.941Z"/><g stroke="none" font-size="10"><text class="tikz-arrow" fill="currentColor" x="-35.087" y="-33.756" font-family="cmtt10" transform="translate(62.826 -29.07)">a</text><text class="tikz-arrow" fill="currentColor" x="-29.837" y="-33.756" font-family="cmr10" transform="translate(62.826 -29.07)">,</text><text class="tikz-arrow" fill="currentColor" x="-23.726" y="-33.756" font-family="cmtt10" transform="translate(62.826 -29.07)">b</text></g></g></svg>