<svg xmlns="http://www.w3.org/2000/svg" width="163.337" height="125.338" viewBox="-72 -72 122.503 94.003"><g class="tikz-arrow" stroke="currentColor" stroke-miterlimit="10" stroke-width=".6"><g class="tikz-fill" fill="var(--tikz-fill, #f3f3f3)"><path d="M-25.087-60.999c0-5.522-4.477-10-10-10s-10 4.478-10 10 4.477 10 10 10 10-4.477 10-10Zm-10 0"/><g class="tikz-arrow" fill="currentColor" stroke="none"><text class="tikz-arrow" fill="currentColor" x="-35.087" y="-60.999" font-family="cmmi9" font-size="9" transform="translate(-4.15 1.062)">q</text><text class="tikz-arrow" fill="currentColor" x="-30.954" y="-59.999" font-family="cmr6" font-size="6" transform="translate(-4.15 1.062)">0</text></g></g><path fill="none" d="M-65.304-60.999h18.697"/><path stroke-linejoin="round" d="M-45.687-60.999c-1.15-.23-2.3-.69-3.68-1.494 1.38 1.035 1.38 1.954 0 2.99 1.38-.806 2.53-1.266 3.68-1.496Z"/><g class="tikz-fill" fill="var(--tikz-fill, #f3f3f3)"><path d="M46.045-60.999c0-5.522-4.477-10-10-10s-10 4.478-10 10 4.477 10 10 10 10-4.477 10-10Zm-10 0"/><g class="tikz-arrow" fill="currentColor" stroke="none"><text class="tikz-arrow" fill="currentColor" x="-35.087" y="-60.999" font-family="cmmi9" font-size="9" transform="translate(66.982 1.062)">q</text><text class="tikz-arrow" fill="currentColor" x="-30.954" y="-59.999" font-family="cmr6" font-size="6" transform="translate(66.982 1.062)">1</text></g></g><g class="tikz-fill" fill="var(--tikz-fill, #f3f3f3)"><path d="M-25.087 10.133c0-5.523-4.477-10-10-10s-10 4.477-10 10 4.477 10 10 10 10-4.477 10-10Zm-10 0"/><g class="tikz-arrow" fill="currentColor" stroke="none"><text class="tikz-arrow" fill="currentColor" x="-34.401" y="-60.999" font-family="cmr9" font-size="9" transform="translate(-4.15 73.268)">~</text><text class="tikz-arrow" fill="currentColor" x="-35.087" y="-60.999" font-family="cmmi9" font-size="9" transform="translate(-4.15 73.268)">q</text><text class="tikz-arrow" fill="currentColor" x="-30.954" y="-59.999" font-family="cmr6" font-size="6" transform="translate(-4.15 73.268)">0</text></g></g><g class="tikz-fill" fill="var(--tikz-fill, #f3f3f3)"><g stroke-width="3.2"><path d="M46.045 10.133c0-5.523-4.477-10-10-10s-10 4.477-10 10 4.477 10 10 10 10-4.477 10-10Zm-10 0"/><path fill="none" class="tikz-fill" stroke="var(--tikz-fill, #f3f3f3)" stroke-width="2" d="M46.045 10.133c0-5.523-4.477-10-10-10s-10 4.477-10 10 4.477 10 10 10 10-4.477 10-10Zm-10 0"/></g><g class="tikz-arrow" fill="currentColor" stroke="none"><text class="tikz-arrow" fill="currentColor" x="-34.401" y="-60.999" font-family="cmr9" font-size="9" transform="translate(66.982 73.268)">~</text><text class="tikz-arrow" fill="currentColor" x="-35.087" y="-60.999" font-family="cmmi9" font-size="9" transform="translate(66.982 73.268)">q</text><text class="tikz-arrow" fill="currentColor" x="-30.954" y="-59.999" font-family="cmr6" font-size="6" transform="translate(66.982 73.268)">1</text></g></g><path fill="none" d="M-24.787-60.999h49.312"/><path stroke-linejoin="round" d="M25.445-60.999c-1.15-.23-2.3-.69-3.68-1.494 1.38 1.035 1.38 1.954 0 2.99 1.38-.806 2.53-1.266 3.68-1.496Z"/><text class="tikz-arrow" fill="currentColor" x="-35.087" y="-60.999" stroke="none" font-family="cmtt10" font-size="10" transform="translate(32.941 -3.633)">a</text><path fill="none" d="M-24.787 10.133h48.612"/><path stroke-linejoin="round" d="M24.745 10.133c-1.15-.23-2.3-.69-3.68-1.495 1.38 1.035 1.38 1.955 0 2.99 1.38-.805 2.53-1.265 3.68-1.495Z"/><text class="tikz-arrow" fill="currentColor" x="-35.087" y="-60.999" stroke="none" font-family="cmtt10" font-size="10" transform="translate(32.591 67.499)">a</text><path fill="none" d="M-35.087-50.698v49.311"/><path stroke-linejoin="round" d="M-35.087-.467c.23-1.15.69-2.3 1.495-3.68-1.035 1.38-1.955 1.38-2.99 0 .805 1.38 1.265 2.53 1.495 3.68Z"/><text class="tikz-arrow" fill="currentColor" x="-35.087" y="-60.999" stroke="none" font-family="cmr10" font-size="10" transform="translate(3.633 38.983)">§</text><path fill="none" d="M36.045-50.698v48.611"/><path stroke-linejoin="round" d="M36.045-1.167c.23-1.15.69-2.3 1.495-3.68-1.035 1.38-1.955 1.38-2.99 0 .805 1.38 1.265 2.53 1.495 3.68Z"/><text class="tikz-arrow" fill="currentColor" x="-35.087" y="-60.999" stroke="none" font-family="cmr10" font-size="10" transform="translate(74.765 38.633)">§</text></g></svg>