<svg xmlns="http://www.w3.org/2000/svg" width="159.086" height="81.2" viewBox="-72 -72 119.315 60.9"><g stroke="#000" stroke-miterlimit="10" stroke-width=".6"><g fill="#f3f3f3"><g stroke-width="3.2"><path d="M-24.387-37.506c0-5.523-4.477-10-10-10s-10 4.477-10 10 4.477 10 10 10 10-4.477 10-10Zm-10 0"/><path fill="none" stroke="#f3f3f3" stroke-width="2" d="M-24.387-37.506c0-5.523-4.477-10-10-10s-10 4.477-10 10 4.477 10 10 10 10-4.477 10-10Zm-10 0"/></g><g fill="#000" stroke="none"><text x="-34.387" y="-37.506" font-family="cmmi9" font-size="9" transform="translate(-4.15 1.062)">q</text><text x="-30.254" y="-36.506" font-family="cmr6" font-size="6" transform="translate(-4.15 1.062)">1</text></g></g><path fill="none" d="M-65.304-37.506h18.697"/><path stroke-linejoin="round" d="M-45.687-37.506c-1.15-.23-2.3-.69-3.68-1.495 1.38 1.035 1.38 1.955 0 2.99 1.38-.805 2.53-1.265 3.68-1.495Z"/><g fill="#f3f3f3"><path d="M46.745-37.506c0-5.523-4.477-10-10-10s-10 4.477-10 10 4.477 10 10 10 10-4.477 10-10Zm-10 0"/><g fill="#000" stroke="none"><text x="-34.387" y="-37.506" font-family="cmmi9" font-size="9" transform="translate(66.982 1.062)">q</text><text x="-30.254" y="-36.506" font-family="cmr6" font-size="6" transform="translate(66.982 1.062)">2</text></g></g><path fill="none" d="M-37.234-48.131c-4.597-17.157 10.29-17.157 6.268-2.145"/><path stroke-linejoin="round" d="M-31.204-49.387c.52-1.051 1.262-2.043 2.396-3.168-1.357 1.066-2.245.827-2.888-.773.42 1.54.567 2.77.492 3.941Z"/><text x="-34.387" y="-37.506" stroke="none" font-family="cmtt10" font-size="10" transform="translate(-2.625 -27.125)">a</text><path fill="none" d="M34.08-47.455c-4.305-16.065 9.635-16.065 5.905-2.144"/><path stroke-linejoin="round" d="M39.747-48.71c.52-1.052 1.261-2.044 2.396-3.168-1.357 1.065-2.245.827-2.888-.774.42 1.541.567 2.771.492 3.941Z"/><text x="-34.387" y="-37.506" stroke="none" font-family="cmtt10" font-size="10" transform="translate(68.507 -25.63)">a</text><path fill="none" d="M-24.861-43.006c17.93-10.194 34.892-10.08 51.633-.267"/><path stroke-linejoin="round" stroke-width=".599964" d="M27.566-42.808c-.876-.78-1.635-1.758-2.419-3.15.668 1.59.202 2.384-1.512 2.58 1.598.003 2.823.187 3.93.57Z"/><text x="-34.387" y="-37.506" stroke="none" font-family="cmtt10" font-size="10" transform="translate(33.295 -16.692)">b</text><path fill="none" d="M27.825-32.356c-17.794 10.43-34.756 10.544-51.626.953"/><path stroke-linejoin="round" stroke-width=".599964" d="M-24.6-31.858c.886.768 1.658 1.736 2.46 3.118-.688-1.581-.234-2.381 1.477-2.599-1.597.018-2.824-.15-3.937-.519Z"/><text x="-34.387" y="-37.506" stroke="none" font-family="cmtt10" font-size="10" transform="translate(33.295 22.803)">b</text></g></svg>