<svg xmlns="http://www.w3.org/2000/svg" width="255.713" height="64.825" viewBox="-72 -72 191.785 48.619"><g stroke="#000" stroke-miterlimit="10" stroke-width=".6"><g fill="#f3f3f3"><g stroke-width="3.2"><path d="M-24.387-35.25c0-5.524-4.477-10.001-10-10.001s-10 4.477-10 10 4.477 10 10 10 10-4.477 10-10Zm-10 0"/><path fill="none" stroke="#f3f3f3" stroke-width="2" d="M-24.387-35.25c0-5.524-4.477-10.001-10-10.001s-10 4.477-10 10 4.477 10 10 10 10-4.477 10-10Zm-10 0"/></g><g fill="#000" stroke="none"><text x="-34.387" y="-35.251" font-family="cmmi9" font-size="9" transform="translate(-4.15 1.062)">q</text><text x="-30.254" y="-34.251" font-family="cmr6" font-size="6" transform="translate(-4.15 1.062)">1</text></g></g><path fill="none" d="M-65.304-35.25h18.697"/><path stroke-linejoin="round" d="M-45.687-35.25c-1.15-.23-2.3-.69-3.68-1.496 1.38 1.035 1.38 1.955 0 2.99 1.38-.805 2.53-1.265 3.68-1.495Z"/><g fill="#f3f3f3"><g stroke-width="3.2"><path d="M46.745-35.25c0-5.524-4.477-10.001-10-10.001s-10 4.477-10 10 4.477 10 10 10 10-4.477 10-10Zm-10 0"/><path fill="none" stroke="#f3f3f3" stroke-width="2" d="M46.745-35.25c0-5.524-4.477-10.001-10-10.001s-10 4.477-10 10 4.477 10 10 10 10-4.477 10-10Zm-10 0"/></g><g fill="#000" stroke="none"><text x="-34.387" y="-35.251" font-family="cmmi9" font-size="9" transform="translate(66.982 1.062)">q</text><text x="-30.254" y="-34.251" font-family="cmr6" font-size="6" transform="translate(66.982 1.062)">2</text></g></g><g fill="#f3f3f3"><path d="M117.877-35.25c0-5.524-4.478-10.001-10-10.001s-10 4.477-10 10 4.477 10 10 10 10-4.477 10-10Zm-10 0"/><g fill="#000" stroke="none"><text x="-34.387" y="-35.251" font-family="cmmi9" font-size="9" transform="translate(138.114 1.062)">q</text><text x="-30.254" y="-34.251" font-family="cmr6" font-size="6" transform="translate(138.114 1.062)">3</text></g></g><path fill="none" d="M-23.387-35.25h47.912"/><path stroke-linejoin="round" d="M25.445-35.25c-1.15-.23-2.3-.69-3.68-1.496 1.38 1.035 1.38 1.955 0 2.99 1.38-.805 2.53-1.265 3.68-1.495Z"/><text x="-34.387" y="-35.251" stroke="none" font-family="cmtt10" font-size="10" transform="translate(32.941 -3.633)">a</text><path fill="none" d="M-24.861-40.75c42.046-24.12 81.907-24.005 122.763-.264"/><path stroke-linejoin="round" stroke-width=".599982" d="M98.697-40.552c-.878-.776-1.642-1.752-2.43-3.14.673 1.587.21 2.383-1.502 2.584 1.597-.002 2.822.178 3.932.556Z"/><text x="-34.387" y="-35.251" stroke="none" font-family="cmtt10" font-size="10" transform="translate(68.861 -27.135)">b</text><path fill="none" d="M47.745-35.25h48.612"/><path stroke-linejoin="round" d="M97.277-35.25c-1.15-.23-2.3-.69-3.68-1.496 1.38 1.035 1.38 1.955 0 2.99 1.38-.805 2.53-1.265 3.68-1.495Z"/><g stroke="none" font-size="10"><text x="-34.387" y="-35.251" font-family="cmtt10" transform="translate(98.742 -5.577)">a</text><text x="-29.137" y="-35.251" font-family="cmr10" transform="translate(98.742 -5.577)">,</text><text x="-23.026" y="-35.251" font-family="cmtt10" transform="translate(98.742 -5.577)">b</text></g><path fill="none" d="M105.211-45.2c-4.305-16.065 9.636-16.065 5.906-2.144"/><path stroke-linejoin="round" d="M110.879-46.456c.52-1.05 1.261-2.043 2.396-3.167-1.357 1.065-2.246.827-2.888-.774.42 1.541.567 2.771.492 3.941Z"/><g stroke="none" font-size="10"><text x="-34.387" y="-35.251" font-family="cmtt10" transform="translate(133.958 -27.575)">a</text><text x="-29.137" y="-35.251" font-family="cmr10" transform="translate(133.958 -27.575)">,</text><text x="-23.026" y="-35.251" font-family="cmtt10" transform="translate(133.958 -27.575)">b</text></g></g></svg>