<svg xmlns="http://www.w3.org/2000/svg" width="159.886" height="74.882" viewBox="-72 -72 119.915 56.161"><g stroke="#000" stroke-miterlimit="10" stroke-width=".6"><g fill="#f3f3f3"><path d="M-25.087-44.19c0-5.522-4.477-10-10-10s-10 4.478-10 10c0 5.524 4.477 10 10 10s10-4.476 10-10Zm-10 0"/><g fill="#000" stroke="none"><text x="-35.087" y="-44.189" font-family="cmmi9" font-size="9" transform="translate(-4.15 1.062)">q</text><text x="-30.954" y="-43.189" font-family="cmr6" font-size="6" transform="translate(-4.15 1.062)">1</text></g></g><path fill="none" d="M-65.304-44.19h18.697"/><path stroke-linejoin="round" d="M-45.687-44.19c-1.15-.23-2.3-.69-3.68-1.494 1.38 1.035 1.38 1.955 0 2.99 1.38-.805 2.53-1.265 3.68-1.495Z"/><g fill="#f3f3f3"><g stroke-width="3.2"><path d="M46.045-44.19c0-5.522-4.477-10-10-10s-10 4.478-10 10c0 5.524 4.477 10 10 10s10-4.476 10-10Zm-10 0"/><path fill="none" stroke="#f3f3f3" stroke-width="2" d="M46.045-44.19c0-5.522-4.477-10-10-10s-10 4.478-10 10c0 5.524 4.477 10 10 10s10-4.476 10-10Zm-10 0"/></g><g fill="#000" stroke="none"><text x="-35.087" y="-44.189" font-family="cmmi9" font-size="9" transform="translate(66.982 1.062)">q</text><text x="-30.954" y="-43.189" font-family="cmr6" font-size="6" transform="translate(66.982 1.062)">2</text></g></g><path fill="none" d="M-26.167-49.34c17.793-10.43 34.755-10.543 51.625-.952"/><path stroke-linejoin="round" stroke-width=".599964" d="M26.258-49.837c-.886-.769-1.659-1.737-2.46-3.119.688 1.582.233 2.382-1.478 2.6 1.597-.018 2.824.15 3.938.519Z"/><g stroke="none" font-size="10"><text x="-35.087" y="-44.189" font-family="cmtt10" transform="translate(26.906 -18.637)">a</text><text x="-29.837" y="-44.189" font-family="cmr10" transform="translate(26.906 -18.637)">,</text><text x="-23.726" y="-44.189" font-family="cmtt10" transform="translate(26.906 -18.637)">b</text></g><path fill="none" d="M26.519-38.69c-17.93 10.194-34.893 10.081-51.634.267"/><path stroke-linejoin="round" stroke-width=".599964" d="M-25.908-38.888c.875.78 1.635 1.759 2.418 3.15-.667-1.59-.202-2.384 1.512-2.578-1.597-.004-2.822-.189-3.93-.572Z"/><g stroke="none" font-size="10"><text x="-35.087" y="-44.189" font-family="cmtt10" transform="translate(26.906 22.803)">a</text><text x="-29.837" y="-44.189" font-family="cmr10" transform="translate(26.906 22.803)">,</text><text x="-23.726" y="-44.189" font-family="cmtt10" transform="translate(26.906 22.803)">b</text></g></g></svg>