<svg xmlns="http://www.w3.org/2000/svg" width="193.479" height="156.262" viewBox="-72 -72 145.109 117.196"><g stroke="#000" stroke-miterlimit="10" stroke-width=".6"><g fill="#f3f3f3"><g stroke-width="3.2"><path d="M22.241-35.7c0-5.523-4.477-10-10-10s-10 4.477-10 10 4.477 10 10 10 10-4.478 10-10Zm-10 0"/><path fill="none" stroke="#f3f3f3" stroke-width="2" d="M22.241-35.7c0-5.523-4.477-10-10-10s-10 4.477-10 10 4.477 10 10 10 10-4.478 10-10Zm-10 0"/></g><g fill="#000" stroke="none"><text x="12.241" y="-35.7" font-family="cmmi9" font-size="9" transform="translate(-4.15 1.062)">q</text><text x="16.374" y="-34.7" font-family="cmr6" font-size="6" transform="translate(-4.15 1.062)">0</text></g></g><path fill="none" d="M-18.676-35.7H.021"/><path stroke-linejoin="round" d="M.941-35.7c-1.15-.23-2.3-.69-3.68-1.495 1.38 1.035 1.38 1.955 0 2.99 1.38-.805 2.53-1.265 3.68-1.495Z"/><g fill="#f3f3f3"><path d="M72.54 14.597c0-5.523-4.478-10-10-10-5.524 0-10 4.477-10 10s4.476 10 10 10c5.522 0 10-4.477 10-10Zm-10 0"/><g fill="#000" stroke="none"><text x="12.241" y="-35.7" font-family="cmmi9" font-size="9" transform="translate(46.148 51.36)">q</text><text x="16.374" y="-34.7" font-family="cmr6" font-size="6" transform="translate(46.148 51.36)">1</text></g></g><g fill="#f3f3f3"><path d="M-28.057 14.597c0-5.523-4.477-10-10-10s-10 4.477-10 10 4.478 10 10 10 10-4.477 10-10Zm-10 0"/><g fill="#000" stroke="none"><text x="12.241" y="-35.7" font-family="cmmi9" font-size="9" transform="translate(-54.448 51.36)">q</text><text x="16.374" y="-34.7" font-family="cmr6" font-size="6" transform="translate(-54.448 51.36)">2</text></g></g><path fill="none" d="M9.395-46.326c-4.597-17.156 10.29-17.156 6.268-2.144"/><path stroke-linejoin="round" d="M15.424-47.581c.52-1.052 1.262-2.043 2.397-3.168-1.357 1.065-2.246.827-2.888-.774.42 1.541.567 2.771.491 3.942Z"/><text x="12.241" y="-35.7" stroke="none" font-family="cmtt10" font-size="10" transform="translate(-2.625 -27.125)">0</text><path fill="none" d="M-48.005 17.263c-16.065 4.305-16.065-9.636-2.145-5.906"/><path stroke-linejoin="round" d="M-49.261 11.595c-1.051-.52-2.043-1.261-3.168-2.396 1.065 1.357.827 2.246-.774 2.888 1.542-.42 2.772-.567 3.942-.492Z"/><text x="12.241" y="-35.7" stroke="none" font-family="cmtt10" font-size="10" transform="translate(-81.178 53.353)">1</text><path fill="none" d="M22.867-32.854c19.91 5.477 31.795 17.52 36.699 36.322"/><path stroke-linejoin="round" stroke-width=".599976" d="M59.798 4.358c-.068-1.17.087-2.4.518-3.938-.653 1.597-1.544 1.829-2.893.755 1.127 1.132 1.862 2.128 2.375 3.183Z"/><text x="12.241" y="-35.7" stroke="none" font-family="cmtt10" font-size="10" transform="translate(38.274 12.525)">1</text><path fill="none" d="M52.59 11.932C32.608 6.72 20.565-5.164 15.412-23.9"/><path stroke-linejoin="round" stroke-width=".599964" d="M15.168-24.786c.083 1.17-.056 2.4-.466 3.944.632-1.605 1.519-1.849 2.883-.793-1.142-1.117-1.89-2.103-2.417-3.151Z"/><text x="12.241" y="-35.7" stroke="none" font-family="cmtt10" font-size="10" transform="translate(7.276 44.385)">1</text><path fill="none" d="M53.62 19.747c-27.95 16.136-54.808 16.136-81.7.61"/><path stroke-linejoin="round" stroke-width=".599988" d="M-28.877 19.897c.881.774 1.647 1.748 2.44 3.135-.678-1.586-.218-2.383 1.494-2.59-1.597.008-2.823-.169-3.934-.545Z"/><text x="12.241" y="-35.7" stroke="none" font-family="cmtt10" font-size="10" transform="translate(-2.625 77.294)">0</text><path fill="none" d="M-29.137 9.448c27.95-16.137 54.807-16.137 81.7-.61"/><path stroke-linejoin="round" stroke-width=".599988" d="M53.36 9.298c-.881-.775-1.647-1.748-2.44-3.135.678 1.586.218 2.383-1.495 2.59 1.598-.008 2.824.169 3.934.545Z"/><text x="12.241" y="-35.7" stroke="none" font-family="cmtt10" font-size="10" transform="translate(-2.625 29.413)">0</text></g></svg>