<svg xmlns="http://www.w3.org/2000/svg" width="159.086" height="83.608" viewBox="-72 -72 119.315 62.706"><g stroke="#000" stroke-miterlimit="10" stroke-width=".6"><g fill="#f3f3f3"><g stroke-width="3.2"><path d="M-24.387-35.7c0-5.523-4.477-10-10-10s-10 4.477-10 10 4.477 10 10 10 10-4.478 10-10Zm-10 0"/><path fill="none" stroke="#f3f3f3" stroke-width="2" d="M-24.387-35.7c0-5.523-4.477-10-10-10s-10 4.477-10 10 4.477 10 10 10 10-4.478 10-10Zm-10 0"/></g><g fill="#000" stroke="none"><text x="-34.387" y="-35.7" font-family="cmmi9" font-size="9" transform="translate(-4.238 1.438)">s</text><text x="-30.078" y="-34.7" font-family="cmr6" font-size="6" transform="translate(-4.238 1.438)">1</text></g></g><path fill="none" d="M-65.304-35.7h18.697"/><path stroke-linejoin="round" d="M-45.687-35.7c-1.15-.23-2.3-.69-3.68-1.495 1.38 1.035 1.38 1.955 0 2.99 1.38-.805 2.53-1.265 3.68-1.495Z"/><g fill="#f3f3f3"><path d="M46.745-35.7c0-5.523-4.477-10-10-10s-10 4.477-10 10 4.477 10 10 10 10-4.478 10-10Zm-10 0"/><g fill="#000" stroke="none"><text x="-34.387" y="-35.7" font-family="cmmi9" font-size="9" transform="translate(66.894 1.438)">s</text><text x="-30.078" y="-34.7" font-family="cmr6" font-size="6" transform="translate(66.894 1.438)">2</text></g></g><path fill="none" d="M-24.861-41.2c17.93-10.194 34.892-10.081 51.633-.267"/><path stroke-linejoin="round" stroke-width=".599964" d="M27.566-41.002c-.876-.78-1.635-1.758-2.419-3.15.668 1.59.202 2.384-1.512 2.579 1.598.003 2.823.188 3.93.571Z"/><text x="-34.387" y="-35.7" stroke="none" font-family="cmtt10" font-size="10" transform="translate(33.295 -16.692)">0</text><path fill="none" d="M27.825-30.55c-17.794 10.43-34.756 10.543-51.626.952"/><path stroke-linejoin="round" stroke-width=".599964" d="M-24.6-30.052c.886.768 1.658 1.736 2.46 3.118-.688-1.582-.234-2.382 1.477-2.6-1.597.018-2.824-.15-3.937-.518Z"/><text x="-34.387" y="-35.7" stroke="none" font-family="cmtt10" font-size="10" transform="translate(33.295 22.803)">1</text><path fill="none" d="M-37.234-46.326c-4.597-17.156 10.29-17.156 6.268-2.144"/><path stroke-linejoin="round" d="M-31.204-47.581c.52-1.052 1.262-2.043 2.396-3.168-1.357 1.065-2.245.827-2.888-.774.42 1.541.567 2.771.492 3.942Z"/><text x="-34.387" y="-35.7" stroke="none" font-family="cmtt10" font-size="10" transform="translate(-2.625 -27.125)">1</text><path fill="none" d="M34.08-45.65c-4.305-16.064 9.635-16.064 5.905-2.144"/><path stroke-linejoin="round" d="M39.747-46.905c.52-1.051 1.261-2.043 2.396-3.168-1.357 1.065-2.245.827-2.888-.773.42 1.54.567 2.77.492 3.94Z"/><text x="-34.387" y="-35.7" stroke="none" font-family="cmtt10" font-size="10" transform="translate(68.507 -25.63)">0</text></g></svg>