<svg xmlns="http://www.w3.org/2000/svg" width="227.771" height="193.953" viewBox="-72 -72 170.828 145.465"><g class="tikz-arrow" stroke="currentColor" stroke-miterlimit="10" stroke-width=".6"><g class="tikz-fill" fill="var(--tikz-fill, #f3f3f3)"><path d="M-25.087 11.297c0-5.523-4.477-10-10-10s-10 4.477-10 10 4.477 10 10 10 10-4.477 10-10Zm-10 0"/><g class="tikz-arrow" fill="currentColor" stroke="none"><text class="tikz-arrow" fill="currentColor" x="-35.087" y="11.297" font-family="cmmi9" font-size="9" transform="translate(-4.15 1.062)">q</text><text class="tikz-arrow" fill="currentColor" x="-30.954" y="12.297" font-family="cmr6" font-size="6" transform="translate(-4.15 1.062)">0</text></g></g><path fill="none" d="M-65.304 11.297h18.697"/><path stroke-linejoin="round" d="M-45.687 11.297c-1.15-.23-2.3-.69-3.68-1.495 1.38 1.035 1.38 1.955 0 2.99 1.38-.805 2.53-1.265 3.68-1.495Z"/><g class="tikz-fill" fill="var(--tikz-fill, #f3f3f3)"><path d="M25.21-39c0-5.524-4.476-10.001-10-10.001-5.522 0-10 4.477-10 10s4.478 10 10 10c5.524 0 10-4.477 10-10Zm-10 0"/><g class="tikz-arrow" fill="currentColor" stroke="none"><text class="tikz-arrow" fill="currentColor" x="-35.087" y="11.297" font-family="cmmi9" font-size="9" transform="translate(45.957 -49.235)">q</text><text class="tikz-arrow" fill="currentColor" x="-30.954" y="12.297" font-family="cmmi6" font-size="6" transform="translate(45.957 -49.235)">a</text></g></g><g class="tikz-fill" fill="var(--tikz-fill, #f3f3f3)"><path d="M25.21 61.595c0-5.523-4.476-10-10-10-5.522 0-10 4.477-10 10s4.478 10 10 10c5.524 0 10-4.477 10-10Zm-10 0"/><g class="tikz-arrow" fill="currentColor" stroke="none"><text class="tikz-arrow" fill="currentColor" x="-35.087" y="11.297" font-family="cmmi9" font-size="9" transform="translate(46.338 51.36)">q</text><text class="tikz-arrow" fill="currentColor" x="-30.954" y="12.364" font-family="cmmi6" font-size="6" transform="translate(46.338 51.36)">b</text></g></g><g class="tikz-fill" fill="var(--tikz-fill, #f3f3f3)"><path d="M96.343-39c0-5.524-4.478-10.001-10-10.001s-10 4.477-10 10 4.477 10 10 10 10-4.477 10-10Zm-10 0"/><g class="tikz-arrow" fill="currentColor" stroke="none"><text class="tikz-arrow" fill="currentColor" x="-35.087" y="11.297" font-family="cmmi9" font-size="9" transform="translate(117.436 -49.235)">q</text><text class="tikz-arrow" fill="currentColor" x="-30.954" y="12.297" font-family="cmmi6" font-size="6" transform="translate(117.436 -49.235)">c</text></g></g><g class="tikz-fill" fill="var(--tikz-fill, #f3f3f3)"><g stroke-width="3.2"><path d="M96.343 61.595c0-5.523-4.478-10-10-10s-10 4.477-10 10 4.477 10 10 10 10-4.477 10-10Zm-10 0"/><path fill="none" class="tikz-fill" stroke="var(--tikz-fill, #f3f3f3)" stroke-width="2" d="M96.343 61.595c0-5.523-4.478-10-10-10s-10 4.477-10 10 4.477 10 10 10 10-4.477 10-10Zm-10 0"/></g><g class="tikz-arrow" fill="currentColor" stroke="none"><text class="tikz-arrow" fill="currentColor" x="-35.087" y="11.297" font-family="cmmi9" font-size="9" transform="translate(116.967 51.119)">q</text><text class="tikz-arrow" fill="currentColor" x="-30.954" y="12.364" font-family="cmmi6" font-size="6" transform="translate(116.967 51.119)">f</text></g></g><path fill="none" d="m-27.804 4.014 34.869-34.87"/><path stroke-linejoin="round" stroke-width=".599994" d="M7.715-31.506c-.975.65-2.114 1.139-3.659 1.545 1.708-.244 2.358.407 2.114 2.115.407-1.545.895-2.684 1.545-3.66Z"/><text class="tikz-arrow" fill="currentColor" x="-35.087" y="11.297" stroke="none" font-family="cmtt10" font-size="10" transform="translate(16.266 -28.782)">a</text><path fill="none" d="M-27.804 18.58 7.065 53.45"/><path stroke-linejoin="round" stroke-width=".599994" d="M7.715 54.1c-.65-.976-1.138-2.115-1.545-3.66.244 1.708-.406 2.358-2.114 2.114 1.545.407 2.684.895 3.66 1.545Z"/><text class="tikz-arrow" fill="currentColor" x="-35.087" y="11.297" stroke="none" font-family="cmtt10" font-size="10" transform="translate(28.782 21.516)">b</text><path fill="none" d="M25.51-39h49.313"/><path stroke-linejoin="round" d="M75.743-39c-1.15-.23-2.3-.69-3.68-1.496 1.38 1.035 1.38 1.955 0 2.99 1.38-.805 2.53-1.265 3.68-1.495Z"/><text class="tikz-arrow" fill="currentColor" x="-35.087" y="11.297" stroke="none" font-family="cmtt10" font-size="10" transform="translate(83.239 -53.93)">a</text><path fill="none" d="M83.677-48.95c-4.305-16.065 9.636-16.065 5.906-2.144"/><path stroke-linejoin="round" d="M89.345-50.206c.52-1.05 1.261-2.043 2.396-3.167-1.357 1.065-2.246.827-2.888-.774.42 1.541.567 2.771.492 3.941Z"/><text class="tikz-arrow" fill="currentColor" x="-35.087" y="11.297" stroke="none" font-family="cmtt10" font-size="10" transform="translate(118.805 -75.928)">a</text><path fill="none" d="M-26.4 5.763c39.237-25.265 100.04-.42 110.092 43.903"/><path stroke-linejoin="round" stroke-width=".59997" d="M83.895 50.564c-.03-1.173.165-2.396.645-3.92-.705 1.575-1.602 1.778-2.916.662 1.09 1.167 1.793 2.187 2.271 3.258Z"/><g stroke="none" font-size="10"><text class="tikz-arrow" fill="currentColor" x="-35.087" y="11.297" font-family="cmtt10" transform="translate(78.344 -15.106)">a</text><text class="tikz-arrow" fill="currentColor" x="-29.837" y="11.297" font-family="cmr10" transform="translate(78.344 -15.106)">,</text><text class="tikz-arrow" fill="currentColor" x="-23.726" y="11.297" font-family="cmtt10" transform="translate(78.344 -15.106)">b</text></g><path fill="none" d="m21.157-30.591 58.13 82.209"/><path stroke-linejoin="round" stroke-width=".599976" d="M79.819 52.369c-.476-1.072-.765-2.276-.904-3.868-.048 1.724-.8 2.255-2.441 1.726 1.454.662 2.493 1.336 3.345 2.142Z"/><text class="tikz-arrow" fill="currentColor" x="-35.087" y="11.297" stroke="none" font-family="cmtt10" font-size="10" transform="translate(89.295 -3.919)">a</text><path fill="none" d="M86.343-28.7v78.075"/><path stroke-linejoin="round" d="M86.343 50.295c.23-1.15.69-2.3 1.495-3.68-1.035 1.38-1.955 1.38-2.99 0 .805 1.38 1.265 2.53 1.495 3.68Z"/><text class="tikz-arrow" fill="currentColor" x="-35.087" y="11.297" stroke="none" font-family="cmtt10" font-size="10" transform="translate(125.063 1.803)">a</text></g></svg>