<svg xmlns="http://www.w3.org/2000/svg" width="311.217" height="254.51" viewBox="-72 -72 233.413 190.883"><g class="tikz-arrow" stroke="currentColor" stroke-miterlimit="10" stroke-width=".6"><g class="tikz-fill" fill="var(--tikz-fill, #f3f3f3)"><path d="M-16.695-60.67c0-5.523-4.478-10-10-10s-10 4.477-10 10 4.477 10 10 10 10-4.477 10-10Zm-10 0"/><g class="tikz-arrow" fill="currentColor" stroke="none"><text class="tikz-arrow" fill="currentColor" x="-26.695" y="-60.67" font-family="cmmi9" font-size="9" transform="translate(-4.15 1.062)">q</text><text class="tikz-arrow" fill="currentColor" x="-22.563" y="-59.67" font-family="cmr6" font-size="6" transform="translate(-4.15 1.062)">1</text></g></g><path fill="none" d="M-56.912-60.67h18.697"/><path stroke-linejoin="round" d="M-37.295-60.67c-1.15-.23-2.3-.69-3.68-1.495 1.38 1.035 1.38 1.955 0 2.99 1.38-.805 2.53-1.265 3.68-1.495Z"/><g class="tikz-fill" fill="var(--tikz-fill, #f3f3f3)"><g stroke-width="3.2"><path d="M54.436-60.67c0-5.523-4.477-10-10-10s-10 4.477-10 10 4.477 10 10 10 10-4.477 10-10Zm-10 0"/><path fill="none" class="tikz-fill" stroke="var(--tikz-fill, #f3f3f3)" stroke-width="2" d="M54.436-60.67c0-5.523-4.477-10-10-10s-10 4.477-10 10 4.477 10 10 10 10-4.477 10-10Zm-10 0"/></g><g class="tikz-arrow" fill="currentColor" stroke="none"><text class="tikz-arrow" fill="currentColor" x="-26.695" y="-60.67" font-family="cmmi9" font-size="9" transform="translate(66.982 1.062)">q</text><text class="tikz-arrow" fill="currentColor" x="-22.563" y="-59.67" font-family="cmr6" font-size="6" transform="translate(66.982 1.062)">2</text></g></g><path fill="none" d="M-16.395-60.67h48.611"/><path stroke-linejoin="round" d="M33.136-60.67c-1.15-.23-2.3-.69-3.68-1.495 1.38 1.035 1.38 1.955 0 2.99 1.38-.805 2.53-1.265 3.68-1.495Z"/><text class="tikz-arrow" fill="currentColor" x="-26.695" y="-60.67" stroke="none" font-family="cmtt10" font-size="10" transform="translate(32.591 -3.633)">a</text><g class="tikz-fill" fill="var(--tikz-fill, #f3f3f3)"><path d="M-16.695 10.462c0-5.523-4.478-10-10-10s-10 4.477-10 10 4.477 10 10 10 10-4.477 10-10Zm-10 0"/><g class="tikz-arrow" fill="currentColor" stroke="none"><text class="tikz-arrow" fill="currentColor" x="-26.695" y="-60.67" font-family="cmmi9" font-size="9" transform="translate(-4.48 73.757)">d</text><text class="tikz-arrow" fill="currentColor" x="-21.903" y="-59.67" font-family="cmr6" font-size="6" transform="translate(-4.48 73.757)">1</text></g></g><g class="tikz-fill" fill="var(--tikz-fill, #f3f3f3)"><path d="M54.436 10.462c0-5.523-4.477-10-10-10s-10 4.477-10 10 4.477 10 10 10 10-4.477 10-10Zm-10 0"/><g class="tikz-arrow" fill="currentColor" stroke="none"><text class="tikz-arrow" fill="currentColor" x="-26.695" y="-60.67" font-family="cmmi9" font-size="9" transform="translate(66.652 73.757)">d</text><text class="tikz-arrow" fill="currentColor" x="-21.903" y="-59.67" font-family="cmr6" font-size="6" transform="translate(66.652 73.757)">2</text></g></g><g class="tikz-fill" fill="var(--tikz-fill, #f3f3f3)"><path d="M125.568 10.462c0-5.523-4.477-10-10-10s-10 4.477-10 10 4.477 10 10 10 10-4.477 10-10Zm-10 0"/><g class="tikz-arrow" fill="currentColor" stroke="none"><text class="tikz-arrow" fill="currentColor" x="-26.695" y="-60.67" font-family="cmmi9" font-size="9" transform="translate(137.784 73.757)">d</text><text class="tikz-arrow" fill="currentColor" x="-21.903" y="-59.67" font-family="cmr6" font-size="6" transform="translate(137.784 73.757)">3</text></g></g><g class="tikz-fill" fill="var(--tikz-fill, #f3f3f3)"><path d="M-16.695 81.594c0-5.523-4.478-10-10-10s-10 4.477-10 10 4.477 10 10 10 10-4.477 10-10Zm-10 0"/><g class="tikz-arrow" fill="currentColor" stroke="none"><text class="tikz-arrow" fill="currentColor" x="-26.695" y="-60.67" font-family="cmmi9" font-size="9" transform="translate(-4.48 144.889)">d</text><text class="tikz-arrow" fill="currentColor" x="-21.903" y="-59.67" font-family="cmr6" font-size="6" transform="translate(-4.48 144.889)">4</text></g></g><g class="tikz-fill" fill="var(--tikz-fill, #f3f3f3)"><path d="M54.436 81.594c0-5.523-4.477-10-10-10s-10 4.477-10 10 4.477 10 10 10 10-4.477 10-10Zm-10 0"/><g class="tikz-arrow" fill="currentColor" stroke="none"><text class="tikz-arrow" fill="currentColor" x="-26.695" y="-60.67" font-family="cmmi9" font-size="9" transform="translate(66.652 144.889)">d</text><text class="tikz-arrow" fill="currentColor" x="-21.903" y="-59.67" font-family="cmr6" font-size="6" transform="translate(66.652 144.889)">5</text></g></g><g class="tikz-fill" fill="var(--tikz-fill, #f3f3f3)"><path d="M125.568 81.594c0-5.523-4.477-10-10-10s-10 4.477-10 10 4.477 10 10 10 10-4.477 10-10Zm-10 0"/><g class="tikz-arrow" fill="currentColor" stroke="none"><text class="tikz-arrow" fill="currentColor" x="-26.695" y="-60.67" font-family="cmmi9" font-size="9" transform="translate(137.784 144.889)">d</text><text class="tikz-arrow" fill="currentColor" x="-21.903" y="-59.67" font-family="cmr6" font-size="6" transform="translate(137.784 144.889)">6</text></g></g><path fill="none" d="M-36.644 13.127C-52.71 17.432-52.71 3.492-38.79 7.222"/><path stroke-linejoin="round" d="M-37.9 7.46c-1.051-.52-2.043-1.262-3.168-2.396 1.065 1.356.827 2.245-.773 2.888 1.54-.42 2.77-.567 3.94-.492Z"/><g stroke="none" font-size="10"><text class="tikz-arrow" fill="currentColor" x="-26.695" y="-60.67" font-family="cmtt10" transform="translate(-42.242 73.215)">a</text><text class="tikz-arrow" fill="currentColor" x="-21.446" y="-60.67" font-family="cmr10" transform="translate(-42.242 73.215)">,</text><text class="tikz-arrow" fill="currentColor" x="-15.334" y="-60.67" font-family="cmtt10" transform="translate(-42.242 73.215)">b</text></g><path fill="none" d="M47.102 20.41c4.305 16.066-9.636 16.066-5.906 2.145"/><path stroke-linejoin="round" d="M41.434 21.666c-.52 1.052-1.261 2.044-2.396 3.168 1.357-1.065 2.246-.827 2.888.774-.42-1.541-.567-2.771-.492-3.942Z"/><g stroke="none" font-size="10"><text class="tikz-arrow" fill="currentColor" x="-26.695" y="-60.67" font-family="cmtt10" transform="translate(62.826 102.874)">a</text><text class="tikz-arrow" fill="currentColor" x="-21.446" y="-60.67" font-family="cmr10" transform="translate(62.826 102.874)">,</text><text class="tikz-arrow" fill="currentColor" x="-15.334" y="-60.67" font-family="cmtt10" transform="translate(62.826 102.874)">b</text></g><path fill="none" d="M125.517 7.796c16.065-4.304 16.065 9.636 2.145 5.906"/><path stroke-linejoin="round" d="M126.773 13.464c1.051.52 2.043 1.262 3.168 2.396-1.066-1.357-.827-2.245.773-2.888-1.54.42-2.77.567-3.941.492Z"/><g stroke="none" font-size="10"><text class="tikz-arrow" fill="currentColor" x="-26.695" y="-60.67" font-family="cmtt10" transform="translate(167.894 73.215)">a</text><text class="tikz-arrow" fill="currentColor" x="-21.446" y="-60.67" font-family="cmr10" transform="translate(167.894 73.215)">,</text><text class="tikz-arrow" fill="currentColor" x="-15.334" y="-60.67" font-family="cmtt10" transform="translate(167.894 73.215)">b</text></g><path fill="none" d="M-36.644 84.26c-16.065 4.304-16.065-9.636-2.145-5.906"/><path stroke-linejoin="round" d="M-37.9 78.592c-1.051-.52-2.043-1.262-3.168-2.397 1.065 1.357.827 2.246-.773 2.889 1.54-.42 2.77-.568 3.94-.492Z"/><g stroke="none" font-size="10"><text class="tikz-arrow" fill="currentColor" x="-26.695" y="-60.67" font-family="cmtt10" transform="translate(-42.242 144.347)">a</text><text class="tikz-arrow" fill="currentColor" x="-21.446" y="-60.67" font-family="cmr10" transform="translate(-42.242 144.347)">,</text><text class="tikz-arrow" fill="currentColor" x="-15.334" y="-60.67" font-family="cmtt10" transform="translate(-42.242 144.347)">b</text></g><path fill="none" d="M47.102 91.543c4.305 16.065-9.636 16.065-5.906 2.144"/><path stroke-linejoin="round" d="M41.434 92.798c-.52 1.052-1.261 2.043-2.396 3.168 1.357-1.065 2.246-.827 2.888.774-.42-1.541-.567-2.771-.492-3.942Z"/><g stroke="none" font-size="10"><text class="tikz-arrow" fill="currentColor" x="-26.695" y="-60.67" font-family="cmtt10" transform="translate(62.826 174.005)">a</text><text class="tikz-arrow" fill="currentColor" x="-21.446" y="-60.67" font-family="cmr10" transform="translate(62.826 174.005)">,</text><text class="tikz-arrow" fill="currentColor" x="-15.334" y="-60.67" font-family="cmtt10" transform="translate(62.826 174.005)">b</text></g><path fill="none" d="M125.517 78.928c16.065-4.304 16.065 9.636 2.145 5.906"/><path stroke-linejoin="round" d="M126.773 84.596c1.051.52 2.043 1.261 3.168 2.396-1.066-1.357-.827-2.245.773-2.888-1.54.42-2.77.567-3.941.492Z"/><g stroke="none" font-size="10"><text class="tikz-arrow" fill="currentColor" x="-26.695" y="-60.67" font-family="cmtt10" transform="translate(167.894 144.347)">a</text><text class="tikz-arrow" fill="currentColor" x="-21.446" y="-60.67" font-family="cmr10" transform="translate(167.894 144.347)">,</text><text class="tikz-arrow" fill="currentColor" x="-15.334" y="-60.67" font-family="cmtt10" transform="translate(167.894 144.347)">b</text></g></g></svg>