<svg xmlns="http://www.w3.org/2000/svg" width="63.31" height="63.092" viewBox="-72 -72 47.483 47.319"><g stroke="#000" stroke-miterlimit="10" stroke-width=".6"><g fill="#f3f3f3"><path d="M-25.087-35.25c0-5.524-4.477-10.001-10-10.001s-10 4.477-10 10 4.477 10 10 10 10-4.477 10-10Zm-10 0"/><text x="-35.087" y="-35.251" fill="#000" stroke="none" font-family="cmmi9" font-size="9" transform="translate(-2.154 1.937)">s</text></g><path fill="none" d="M-65.304-35.25h18.697"/><path stroke-linejoin="round" d="M-45.687-35.25c-1.15-.23-2.3-.69-3.68-1.496 1.38 1.035 1.38 1.955 0 2.99 1.38-.805 2.53-1.265 3.68-1.495Z"/><path fill="none" d="M-37.753-45.2c-4.304-16.065 9.636-16.065 5.906-2.144"/><path stroke-linejoin="round" d="M-32.085-46.456c.52-1.05 1.261-2.043 2.396-3.167-1.357 1.065-2.245.827-2.888-.774.42 1.541.567 2.771.492 3.941Z"/><g stroke="none" font-size="10"><text x="-35.087" y="-35.251" font-family="cmtt10" transform="translate(-6.639 -27.575)">0</text><text x="-29.837" y="-35.251" font-family="cmr10" transform="translate(-6.639 -27.575)">,</text><text x="-27.059" y="-35.251" font-family="cmtt10" transform="translate(-6.639 -27.575)">1</text></g></g></svg>