<svg xmlns="http://www.w3.org/2000/svg" width="349.623" height="64.825" viewBox="-72 -72 262.217 48.619"><g stroke="#000" stroke-miterlimit="10" stroke-width=".6"><g fill="#f3f3f3"><path d="M-25.087-35.25c0-5.524-4.477-10.001-10-10.001s-10 4.477-10 10 4.477 10 10 10 10-4.477 10-10Zm-10 0"/><g fill="#000" stroke="none"><text x="-35.087" y="-35.251" font-family="cmmi9" font-size="9" transform="translate(-4.15 1.062)">q</text><text x="-30.954" y="-34.251" font-family="cmr6" font-size="6" transform="translate(-4.15 1.062)">1</text></g></g><path fill="none" d="M-65.304-35.25h18.697"/><path stroke-linejoin="round" d="M-45.687-35.25c-1.15-.23-2.3-.69-3.68-1.496 1.38 1.035 1.38 1.955 0 2.99 1.38-.805 2.53-1.265 3.68-1.495Z"/><g fill="#f3f3f3"><g stroke-width="3.2"><path d="M46.045-35.25c0-5.524-4.477-10.001-10-10.001s-10 4.477-10 10 4.477 10 10 10 10-4.477 10-10Zm-10 0"/><path fill="none" stroke="#f3f3f3" stroke-width="2" d="M46.045-35.25c0-5.524-4.477-10.001-10-10.001s-10 4.477-10 10 4.477 10 10 10 10-4.477 10-10Zm-10 0"/></g><g fill="#000" stroke="none"><text x="-35.087" y="-35.251" font-family="cmmi9" font-size="9" transform="translate(66.982 1.062)">q</text><text x="-30.954" y="-34.251" font-family="cmr6" font-size="6" transform="translate(66.982 1.062)">2</text></g></g><g fill="#f3f3f3"><g stroke-width="3.2"><path d="M117.177-35.25c0-5.524-4.478-10.001-10-10.001s-10 4.477-10 10 4.477 10 10 10 10-4.477 10-10Zm-10 0"/><path fill="none" stroke="#f3f3f3" stroke-width="2" d="M117.177-35.25c0-5.524-4.478-10.001-10-10.001s-10 4.477-10 10 4.477 10 10 10 10-4.477 10-10Zm-10 0"/></g><g fill="#000" stroke="none"><text x="-35.087" y="-35.251" font-family="cmmi9" font-size="9" transform="translate(138.114 1.062)">q</text><text x="-30.954" y="-34.251" font-family="cmr6" font-size="6" transform="translate(138.114 1.062)">3</text></g></g><g fill="#f3f3f3"><path d="M188.308-35.25c0-5.524-4.477-10.001-10-10.001s-10 4.477-10 10 4.478 10 10 10 10-4.477 10-10Zm-10 0"/><g fill="#000" stroke="none"><text x="-35.087" y="-35.251" font-family="cmmi9" font-size="9" transform="translate(209.246 1.062)">q</text><text x="-30.954" y="-34.251" font-family="cmr6" font-size="6" transform="translate(209.246 1.062)">4</text></g></g><path fill="none" d="M-37.753-45.2c-4.304-16.065 9.636-16.065 5.906-2.144"/><path stroke-linejoin="round" d="M-32.085-46.456c.52-1.05 1.261-2.043 2.396-3.167-1.357 1.065-2.245.827-2.888-.774.42 1.541.567 2.771.492 3.941Z"/><text x="-35.087" y="-35.251" stroke="none" font-family="cmtt10" font-size="10" transform="translate(-2.625 -25.63)">b</text><path fill="none" d="M-24.787-35.25h48.612"/><path stroke-linejoin="round" d="M24.745-35.25c-1.15-.23-2.3-.69-3.68-1.496 1.38 1.035 1.38 1.955 0 2.99 1.38-.805 2.53-1.265 3.68-1.495Z"/><text x="-35.087" y="-35.251" stroke="none" font-family="cmtt10" font-size="10" transform="translate(32.591 -3.633)">a</text><path fill="none" d="M33.198-45.876c-4.597-17.157 10.29-17.157 6.268-2.144"/><path stroke-linejoin="round" d="M39.228-47.132c.52-1.051 1.261-2.043 2.396-3.168-1.357 1.066-2.245.828-2.888-.773.42 1.541.567 2.77.492 3.941Z"/><text x="-35.087" y="-35.251" stroke="none" font-family="cmtt10" font-size="10" transform="translate(68.507 -27.125)">b</text><path fill="none" d="M47.045-35.25h47.912"/><path stroke-linejoin="round" d="M95.877-35.25c-1.15-.23-2.3-.69-3.68-1.496 1.38 1.035 1.38 1.955 0 2.99 1.38-.805 2.53-1.265 3.68-1.495Z"/><text x="-35.087" y="-35.251" stroke="none" font-family="cmtt10" font-size="10" transform="translate(104.073 -3.633)">a</text><path fill="none" d="M104.33-45.876c-4.597-17.157 10.29-17.157 6.268-2.144"/><path stroke-linejoin="round" d="M110.36-47.132c.52-1.051 1.261-2.043 2.396-3.168-1.357 1.066-2.245.828-2.888-.773.42 1.541.567 2.77.492 3.941Z"/><text x="-35.087" y="-35.251" stroke="none" font-family="cmtt10" font-size="10" transform="translate(139.639 -27.125)">b</text><path fill="none" d="M118.177-35.25h48.611"/><path stroke-linejoin="round" d="M167.708-35.25c-1.15-.23-2.3-.69-3.68-1.496 1.38 1.035 1.38 1.955 0 2.99 1.38-.805 2.53-1.265 3.68-1.495Z"/><text x="-35.087" y="-35.251" stroke="none" font-family="cmtt10" font-size="10" transform="translate(175.555 -3.633)">a</text><path fill="none" d="M175.643-45.2c-4.305-16.065 9.636-16.065 5.905-2.144"/><path stroke-linejoin="round" d="M181.31-46.456c.52-1.05 1.262-2.043 2.397-3.167-1.357 1.065-2.246.827-2.888-.774.42 1.541.567 2.771.491 3.941Z"/><g stroke="none" font-size="10"><text x="-35.087" y="-35.251" font-family="cmtt10" transform="translate(205.09 -27.575)">a</text><text x="-29.837" y="-35.251" font-family="cmr10" transform="translate(205.09 -27.575)">,</text><text x="-23.726" y="-35.251" font-family="cmtt10" transform="translate(205.09 -27.575)">b</text></g></g></svg>