<svg xmlns="http://www.w3.org/2000/svg" width="226.95" height="195.946" viewBox="-72 -72 170.213 146.96"><g class="tikz-arrow" stroke="currentColor" stroke-miterlimit="10" stroke-width=".6"><g class="tikz-fill" fill="var(--tikz-fill, #f3f3f3)"><path d="M-25.087 12.792c0-5.523-4.477-10-10-10s-10 4.477-10 10 4.477 10 10 10 10-4.477 10-10Zm-10 0"/><g class="tikz-arrow" fill="currentColor" stroke="none"><text class="tikz-arrow" fill="currentColor" x="-35.087" y="12.792" font-family="cmmi9" font-size="9" transform="translate(-4.15 1.062)">q</text><text class="tikz-arrow" fill="currentColor" x="-30.954" y="13.792" font-family="cmr6" font-size="6" transform="translate(-4.15 1.062)">0</text></g></g><path fill="none" d="M-65.304 12.792h18.697"/><path stroke-linejoin="round" d="M-45.687 12.792c-1.15-.23-2.3-.69-3.68-1.495 1.38 1.035 1.38 1.955 0 2.99 1.38-.805 2.53-1.265 3.68-1.495Z"/><g class="tikz-fill" fill="var(--tikz-fill, #f3f3f3)"><g stroke-width="3.2"><path d="M25.21-37.506c0-5.523-4.476-10-10-10-5.522 0-10 4.477-10 10s4.478 10 10 10c5.524 0 10-4.477 10-10Zm-10 0"/><path fill="none" class="tikz-fill" stroke="var(--tikz-fill, #f3f3f3)" stroke-width="2" d="M25.21-37.506c0-5.523-4.476-10-10-10-5.522 0-10 4.477-10 10s4.478 10 10 10c5.524 0 10-4.477 10-10Zm-10 0"/></g><g class="tikz-arrow" fill="currentColor" stroke="none"><text class="tikz-arrow" fill="currentColor" x="-35.087" y="12.792" font-family="cmmi9" font-size="9" transform="translate(45.957 -49.235)">q</text><text class="tikz-arrow" fill="currentColor" x="-30.954" y="13.792" font-family="cmmi6" font-size="6" transform="translate(45.957 -49.235)">a</text></g></g><g class="tikz-fill" fill="var(--tikz-fill, #f3f3f3)"><g stroke-width="3.2"><path d="M25.21 63.09c0-5.523-4.476-10-10-10-5.522 0-10 4.477-10 10s4.478 10 10 10c5.524 0 10-4.477 10-10Zm-10 0"/><path fill="none" class="tikz-fill" stroke="var(--tikz-fill, #f3f3f3)" stroke-width="2" d="M25.21 63.09c0-5.523-4.476-10-10-10-5.522 0-10 4.477-10 10s4.478 10 10 10c5.524 0 10-4.477 10-10Zm-10 0"/></g><g class="tikz-arrow" fill="currentColor" stroke="none"><text class="tikz-arrow" fill="currentColor" x="-35.087" y="12.792" font-family="cmmi9" font-size="9" transform="translate(46.338 51.36)">q</text><text class="tikz-arrow" fill="currentColor" x="-30.954" y="13.859" font-family="cmmi6" font-size="6" transform="translate(46.338 51.36)">b</text></g></g><g class="tikz-fill" fill="var(--tikz-fill, #f3f3f3)"><g stroke-width="3.2"><path d="M96.343-37.506c0-5.523-4.478-10-10-10s-10 4.477-10 10 4.477 10 10 10 10-4.477 10-10Zm-10 0"/><path fill="none" class="tikz-fill" stroke="var(--tikz-fill, #f3f3f3)" stroke-width="2" d="M96.343-37.506c0-5.523-4.478-10-10-10s-10 4.477-10 10 4.477 10 10 10 10-4.477 10-10Zm-10 0"/></g><g class="tikz-arrow" fill="currentColor" stroke="none"><text class="tikz-arrow" fill="currentColor" x="-35.087" y="12.792" font-family="cmmi9" font-size="9" transform="translate(117.436 -49.235)">q</text><text class="tikz-arrow" fill="currentColor" x="-30.954" y="13.792" font-family="cmmi6" font-size="6" transform="translate(117.436 -49.235)">c</text></g></g><path fill="none" d="M-27.804 5.509 6.57-28.865"/><path stroke-linejoin="round" stroke-width=".599994" d="M7.22-29.516c-.975.65-2.114 1.139-3.659 1.545 1.708-.244 2.358.407 2.114 2.114.407-1.545.895-2.683 1.545-3.659Z"/><text class="tikz-arrow" fill="currentColor" x="-35.087" y="12.792" stroke="none" font-family="cmtt10" font-size="10" transform="translate(16.019 -28.534)">a</text><path fill="none" d="M-27.804 20.075 6.57 54.45"/><path stroke-linejoin="round" stroke-width=".599994" d="M7.22 55.1c-.65-.976-1.138-2.115-1.545-3.66.244 1.708-.406 2.358-2.114 2.114 1.545.407 2.684.895 3.66 1.545Z"/><text class="tikz-arrow" fill="currentColor" x="-35.087" y="12.792" stroke="none" font-family="cmtt10" font-size="10" transform="translate(28.534 21.268)">b</text><path fill="none" d="M26.21-37.506h47.913"/><path stroke-linejoin="round" d="M75.043-37.506c-1.15-.23-2.3-.69-3.68-1.495 1.38 1.035 1.38 1.955 0 2.99 1.38-.805 2.53-1.265 3.68-1.495Z"/><text class="tikz-arrow" fill="currentColor" x="-35.087" y="12.792" stroke="none" font-family="cmtt10" font-size="10" transform="translate(83.239 -53.93)">a</text><path fill="none" d="M83.496-48.131c-4.597-17.157 10.29-17.157 6.268-2.145"/><path stroke-linejoin="round" d="M89.526-49.387c.52-1.051 1.261-2.043 2.396-3.168-1.357 1.066-2.245.827-2.888-.773.42 1.54.567 2.77.492 3.941Z"/><text class="tikz-arrow" fill="currentColor" x="-35.087" y="12.792" stroke="none" font-family="cmtt10" font-size="10" transform="translate(118.805 -77.423)">a</text></g></svg>