<svg xmlns="http://www.w3.org/2000/svg" width="255.713" height="84.207" viewBox="-72 -72 191.785 63.155"><g stroke="#000" stroke-miterlimit="10" stroke-width=".6"><g fill="#f3f3f3"><g stroke-width="3.2"><path d="M-24.387-35.25c0-5.524-4.477-10.001-10-10.001s-10 4.477-10 10 4.477 10 10 10 10-4.477 10-10Zm-10 0"/><path fill="none" stroke="#f3f3f3" stroke-width="2" d="M-24.387-35.25c0-5.524-4.477-10.001-10-10.001s-10 4.477-10 10 4.477 10 10 10 10-4.477 10-10Zm-10 0"/></g><g fill="#000" stroke="none"><text x="-34.387" y="-35.251" font-family="cmmi9" font-size="9" transform="translate(-4.15 1.062)">q</text><text x="-30.254" y="-34.251" font-family="cmr6" font-size="6" transform="translate(-4.15 1.062)">1</text></g></g><path fill="none" d="M-65.304-35.25h18.697"/><path stroke-linejoin="round" d="M-45.687-35.25c-1.15-.23-2.3-.69-3.68-1.496 1.38 1.035 1.38 1.955 0 2.99 1.38-.805 2.53-1.265 3.68-1.495Z"/><g fill="#f3f3f3"><path d="M46.745-35.25c0-5.524-4.477-10.001-10-10.001s-10 4.477-10 10 4.477 10 10 10 10-4.477 10-10Zm-10 0"/><g fill="#000" stroke="none"><text x="-34.387" y="-35.251" font-family="cmmi9" font-size="9" transform="translate(66.982 1.062)">q</text><text x="-30.254" y="-34.251" font-family="cmr6" font-size="6" transform="translate(66.982 1.062)">2</text></g></g><g fill="#f3f3f3"><path d="M117.877-35.25c0-5.524-4.478-10.001-10-10.001s-10 4.477-10 10 4.477 10 10 10 10-4.477 10-10Zm-10 0"/><g fill="#000" stroke="none"><text x="-34.387" y="-35.251" font-family="cmmi9" font-size="9" transform="translate(138.114 1.062)">q</text><text x="-30.254" y="-34.251" font-family="cmr6" font-size="6" transform="translate(138.114 1.062)">3</text></g></g><path fill="none" d="M-37.234-45.876c-4.597-17.157 10.29-17.157 6.268-2.144"/><path stroke-linejoin="round" d="M-31.204-47.132c.52-1.051 1.262-2.043 2.396-3.168-1.357 1.066-2.245.828-2.888-.773.42 1.541.567 2.77.492 3.941Z"/><text x="-34.387" y="-35.251" stroke="none" font-family="cmtt10" font-size="10" transform="translate(-2.625 -27.125)">b</text><path fill="none" d="M-24.861-40.75c17.93-10.195 34.892-10.082 51.633-.268"/><path stroke-linejoin="round" stroke-width=".599964" d="M27.566-40.553c-.876-.78-1.635-1.758-2.419-3.15.668 1.59.202 2.384-1.512 2.58 1.598.003 2.823.187 3.93.57Z"/><text x="-34.387" y="-35.251" stroke="none" font-family="cmtt10" font-size="10" transform="translate(33.295 -16.692)">a</text><path fill="none" d="M27.825-30.101c-17.794 10.43-34.756 10.544-51.626.953"/><path stroke-linejoin="round" stroke-width=".599964" d="M-24.6-29.603c.886.768 1.658 1.737 2.46 3.118-.688-1.581-.234-2.381 1.477-2.599-1.597.018-2.824-.15-3.937-.519Z"/><text x="-34.387" y="-35.251" stroke="none" font-family="cmtt10" font-size="10" transform="translate(33.295 22.803)">b</text><path fill="none" d="M47.045-35.25h49.312"/><path stroke-linejoin="round" d="M97.277-35.25c-1.15-.23-2.3-.69-3.68-1.496 1.38 1.035 1.38 1.955 0 2.99 1.38-.805 2.53-1.265 3.68-1.495Z"/><text x="-34.387" y="-35.251" stroke="none" font-family="cmtt10" font-size="10" transform="translate(104.073 -3.633)">a</text><path fill="none" d="M105.211-45.2c-4.305-16.065 9.636-16.065 5.906-2.144"/><path stroke-linejoin="round" d="M110.879-46.456c.52-1.05 1.261-2.043 2.396-3.167-1.357 1.065-2.246.827-2.888-.774.42 1.541.567 2.771.492 3.941Z"/><g stroke="none" font-size="10"><text x="-34.387" y="-35.251" font-family="cmtt10" transform="translate(133.958 -27.575)">a</text><text x="-29.137" y="-35.251" font-family="cmr10" transform="translate(133.958 -27.575)">,</text><text x="-23.026" y="-35.251" font-family="cmtt10" transform="translate(133.958 -27.575)">b</text></g></g></svg>