<svg xmlns="http://www.w3.org/2000/svg" width="159.886" height="64.226" viewBox="-72 -72 119.915 48.17"><g stroke="#000" stroke-miterlimit="10" stroke-width=".6"><g fill="#f3f3f3"><path d="M-25.087-35.7c0-5.523-4.477-10-10-10s-10 4.477-10 10 4.477 10 10 10 10-4.478 10-10Zm-10 0"/><g fill="#000" stroke="none"><text x="-35.087" y="-35.7" font-family="cmmi9" font-size="9" transform="translate(-4.238 1.438)">s</text><text x="-30.778" y="-34.7" font-family="cmr6" font-size="6" transform="translate(-4.238 1.438)">1</text></g></g><path fill="none" d="M-65.304-35.7h18.697"/><path stroke-linejoin="round" d="M-45.687-35.7c-1.15-.23-2.3-.69-3.68-1.495 1.38 1.035 1.38 1.955 0 2.99 1.38-.805 2.53-1.265 3.68-1.495Z"/><g fill="#f3f3f3"><g stroke-width="3.2"><path d="M46.045-35.7c0-5.523-4.477-10-10-10s-10 4.477-10 10 4.477 10 10 10 10-4.478 10-10Zm-10 0"/><path fill="none" stroke="#f3f3f3" stroke-width="2" d="M46.045-35.7c0-5.523-4.477-10-10-10s-10 4.477-10 10 4.477 10 10 10 10-4.478 10-10Zm-10 0"/></g><g fill="#000" stroke="none"><text x="-35.087" y="-35.7" font-family="cmmi9" font-size="9" transform="translate(66.894 1.438)">s</text><text x="-30.778" y="-34.7" font-family="cmr6" font-size="6" transform="translate(66.894 1.438)">2</text></g></g><path fill="none" d="M-26.167-40.85c17.793-10.431 34.755-10.544 51.625-.953"/><path stroke-linejoin="round" stroke-width=".599964" d="M26.258-41.349c-.886-.768-1.659-1.736-2.46-3.118.688 1.582.233 2.382-1.478 2.6 1.597-.018 2.824.15 3.938.518Z"/><text x="-35.087" y="-35.7" stroke="none" font-family="cmtt10" font-size="10" transform="translate(32.587 -16.692)">1</text><path fill="none" d="M-37.753-45.65c-4.304-16.064 9.636-16.064 5.906-2.144"/><path stroke-linejoin="round" d="M-32.085-46.905c.52-1.051 1.261-2.043 2.396-3.168-1.357 1.065-2.245.827-2.888-.773.42 1.54.567 2.77.492 3.94Z"/><text x="-35.087" y="-35.7" stroke="none" font-family="cmtt10" font-size="10" transform="translate(-2.625 -25.63)">0</text><path fill="none" d="M33.198-46.326c-4.597-17.156 10.29-17.156 6.268-2.144"/><path stroke-linejoin="round" d="M39.228-47.581c.52-1.052 1.261-2.043 2.396-3.168-1.357 1.065-2.245.827-2.888-.774.42 1.541.567 2.771.492 3.942Z"/><text x="-35.087" y="-35.7" stroke="none" font-family="cmtt10" font-size="10" transform="translate(68.507 -27.125)">0</text></g></svg>