<svg xmlns="http://www.w3.org/2000/svg" width="159.086" height="64.825" viewBox="-72 -72 119.315 48.619"><g stroke="#000" stroke-miterlimit="10" stroke-width=".6"><g fill="#f3f3f3"><g stroke-width="3.2"><path d="M-24.387-35.25c0-5.524-4.477-10.001-10-10.001s-10 4.477-10 10 4.477 10 10 10 10-4.477 10-10Zm-10 0"/><path fill="none" stroke="#f3f3f3" stroke-width="2" d="M-24.387-35.25c0-5.524-4.477-10.001-10-10.001s-10 4.477-10 10 4.477 10 10 10 10-4.477 10-10Zm-10 0"/></g><g fill="#000" stroke="none"><text x="-34.387" y="-35.251" font-family="cmmi9" font-size="9" transform="translate(-4.238 1.438)">s</text><text x="-30.078" y="-34.251" font-family="cmr6" font-size="6" transform="translate(-4.238 1.438)">1</text></g></g><path fill="none" d="M-65.304-35.25h18.697"/><path stroke-linejoin="round" d="M-45.687-35.25c-1.15-.23-2.3-.69-3.68-1.496 1.38 1.035 1.38 1.955 0 2.99 1.38-.805 2.53-1.265 3.68-1.495Z"/><g fill="#f3f3f3"><path d="M46.745-35.25c0-5.524-4.477-10.001-10-10.001s-10 4.477-10 10 4.477 10 10 10 10-4.477 10-10Zm-10 0"/><g fill="#000" stroke="none"><text x="-34.387" y="-35.251" font-family="cmmi9" font-size="9" transform="translate(66.894 1.438)">s</text><text x="-30.078" y="-34.251" font-family="cmr6" font-size="6" transform="translate(66.894 1.438)">2</text></g></g><path fill="none" d="M-23.387-35.25h48.612"/><path stroke-linejoin="round" d="M26.145-35.25c-1.15-.23-2.3-.69-3.68-1.496 1.38 1.035 1.38 1.955 0 2.99 1.38-.805 2.53-1.265 3.68-1.495Z"/><text x="-34.387" y="-35.251" stroke="none" font-family="cmtt10" font-size="10" transform="translate(33.291 -3.633)">1</text><path fill="none" d="M-37.234-45.876c-4.597-17.157 10.29-17.157 6.268-2.144"/><path stroke-linejoin="round" d="M-31.204-47.132c.52-1.051 1.262-2.043 2.396-3.168-1.357 1.066-2.245.828-2.888-.773.42 1.541.567 2.77.492 3.941Z"/><text x="-34.387" y="-35.251" stroke="none" font-family="cmtt10" font-size="10" transform="translate(-2.625 -27.125)">0</text><path fill="none" d="M34.08-45.2c-4.305-16.065 9.635-16.065 5.905-2.144"/><path stroke-linejoin="round" d="M39.747-46.456c.52-1.05 1.261-2.043 2.396-3.167-1.357 1.065-2.245.827-2.888-.774.42 1.541.567 2.771.492 3.941Z"/><g stroke="none" font-size="10"><text x="-34.387" y="-35.251" font-family="cmtt10" transform="translate(64.493 -27.575)">0</text><text x="-29.137" y="-35.251" font-family="cmr10" transform="translate(64.493 -27.575)">,</text><text x="-26.359" y="-35.251" font-family="cmtt10" transform="translate(64.493 -27.575)">1</text></g></g></svg>