<svg xmlns="http://www.w3.org/2000/svg" width="132.159" height="234.838" viewBox="-72 -72 99.119 176.129"><g stroke="#000" stroke-miterlimit="10" stroke-width=".6"><g fill="#f3f3f3"><path d="M-25.087 16.542c0-5.523-4.477-10-10-10s-10 4.477-10 10 4.477 10 10 10 10-4.477 10-10Zm-10 0"/><g fill="#000" stroke="none"><text x="-35.087" y="16.542" font-family="cmmi9" font-size="9" transform="translate(-4.15 1.062)">q</text><text x="-30.954" y="17.542" font-family="cmr6" font-size="6" transform="translate(-4.15 1.062)">1</text></g></g><path fill="none" d="M-65.304 16.542h18.697"/><path stroke-linejoin="round" d="M-45.687 16.542c-1.15-.23-2.3-.69-3.68-1.495 1.38 1.035 1.38 1.955 0 2.99 1.38-.805 2.53-1.265 3.68-1.495Z"/><g fill="#f3f3f3"><g stroke-width="3.2"><path d="M25.21-33.756c0-5.523-4.476-10-10-10-5.522 0-10 4.477-10 10s4.478 10 10 10c5.524 0 10-4.477 10-10Zm-10 0"/><path fill="none" stroke="#f3f3f3" stroke-width="2" d="M25.21-33.756c0-5.523-4.476-10-10-10-5.522 0-10 4.477-10 10s4.478 10 10 10c5.524 0 10-4.477 10-10Zm-10 0"/></g><g fill="#000" stroke="none"><text x="-35.087" y="16.542" font-family="cmmi9" font-size="9" transform="translate(46.148 -49.235)">q</text><text x="-30.954" y="17.542" font-family="cmr6" font-size="6" transform="translate(46.148 -49.235)">2</text></g></g><g fill="#f3f3f3"><path d="M25.21 66.84c0-5.523-4.476-10-10-10-5.522 0-10 4.477-10 10s4.478 10 10 10c5.524 0 10-4.477 10-10Zm-10 0"/><g fill="#000" stroke="none"><text x="-35.087" y="16.542" font-family="cmmi9" font-size="9" transform="translate(46.148 51.36)">q</text><text x="-30.954" y="17.542" font-family="cmr6" font-size="6" transform="translate(46.148 51.36)">3</text></g></g><path fill="none" d="M-27.804 9.259 6.57-25.115"/><path stroke-linejoin="round" stroke-width=".599994" d="M7.22-25.766c-.975.65-2.114 1.139-3.659 1.545 1.708-.244 2.358.407 2.114 2.114.407-1.545.895-2.683 1.545-3.659Z"/><text x="-35.087" y="16.542" stroke="none" font-family="cmtt10" font-size="10" transform="translate(16.019 -28.534)">a</text><path fill="none" d="M-27.804 23.825 7.065 58.694"/><path stroke-linejoin="round" stroke-width=".599994" d="M7.715 59.344c-.65-.975-1.138-2.114-1.545-3.659.244 1.708-.406 2.358-2.114 2.114 1.545.407 2.684.895 3.66 1.545Z"/><text x="-35.087" y="16.542" stroke="none" font-family="cmtt10" font-size="10" transform="translate(28.782 21.516)">b</text><path fill="none" d="M12.364-44.381c-4.597-17.157 10.29-17.157 6.268-2.145"/><path stroke-linejoin="round" d="M18.394-45.637c.52-1.051 1.261-2.043 2.396-3.168-1.357 1.066-2.245.827-2.888-.773.42 1.54.567 2.77.492 3.941Z"/><g stroke="none" font-size="10"><text x="-35.087" y="16.542" font-family="cmtt10" transform="translate(41.992 -79.368)">a</text><text x="-29.837" y="16.542" font-family="cmr10" transform="translate(41.992 -79.368)">,</text><text x="-23.726" y="16.542" font-family="cmtt10" transform="translate(41.992 -79.368)">b</text></g><path fill="none" d="M17.876 76.789c4.305 16.065-9.635 16.065-5.905 2.144"/><path stroke-linejoin="round" d="M12.209 78.044c-.52 1.052-1.262 2.043-2.397 3.168 1.357-1.065 2.246-.827 2.888.774-.42-1.542-.567-2.771-.491-3.942Z"/><g stroke="none" font-size="10"><text x="-35.087" y="16.542" font-family="cmtt10" transform="translate(41.992 82.04)">a</text><text x="-29.837" y="16.542" font-family="cmr10" transform="translate(41.992 82.04)">,</text><text x="-23.726" y="16.542" font-family="cmtt10" transform="translate(41.992 82.04)">b</text></g></g></svg>