<svg xmlns="http://www.w3.org/2000/svg" width="159.886" height="30.933" viewBox="-72 -72 119.915 23.2"><g class="tikz-arrow" stroke="currentColor" stroke-miterlimit="10" stroke-width=".6"><g class="tikz-fill" fill="var(--tikz-fill, #f3f3f3)"><path d="M-25.087-60.67c0-5.523-4.477-10-10-10s-10 4.477-10 10 4.477 10 10 10 10-4.477 10-10Zm-10 0"/><g class="tikz-arrow" fill="currentColor" stroke="none"><text class="tikz-arrow" fill="currentColor" x="-35.087" y="-60.67" font-family="cmmi9" font-size="9" transform="translate(-4.15 1.062)">q</text><text class="tikz-arrow" fill="currentColor" x="-30.954" y="-59.67" font-family="cmr6" font-size="6" transform="translate(-4.15 1.062)">1</text></g></g><path fill="none" d="M-65.304-60.67h18.697"/><path stroke-linejoin="round" d="M-45.687-60.67c-1.15-.23-2.3-.69-3.68-1.495 1.38 1.035 1.38 1.955 0 2.99 1.38-.805 2.53-1.265 3.68-1.495Z"/><g class="tikz-fill" fill="var(--tikz-fill, #f3f3f3)"><g stroke-width="3.2"><path d="M46.045-60.67c0-5.523-4.477-10-10-10s-10 4.477-10 10 4.477 10 10 10 10-4.477 10-10Zm-10 0"/><path fill="none" class="tikz-fill" stroke="var(--tikz-fill, #f3f3f3)" stroke-width="2" d="M46.045-60.67c0-5.523-4.477-10-10-10s-10 4.477-10 10 4.477 10 10 10 10-4.477 10-10Zm-10 0"/></g><g class="tikz-arrow" fill="currentColor" stroke="none"><text class="tikz-arrow" fill="currentColor" x="-35.087" y="-60.67" font-family="cmmi9" font-size="9" transform="translate(66.982 1.062)">q</text><text class="tikz-arrow" fill="currentColor" x="-30.954" y="-59.67" font-family="cmr6" font-size="6" transform="translate(66.982 1.062)">2</text></g></g><path fill="none" d="M-24.787-60.67h48.612"/><path stroke-linejoin="round" d="M24.745-60.67c-1.15-.23-2.3-.69-3.68-1.495 1.38 1.035 1.38 1.955 0 2.99 1.38-.805 2.53-1.265 3.68-1.495Z"/><text class="tikz-arrow" fill="currentColor" x="-35.087" y="-60.67" stroke="none" font-family="cmtt10" font-size="10" transform="translate(32.591 -3.633)">a</text></g></svg>